<svg width="48" height="46" viewBox="0 0 48 46" fill="none" xmlns="http://www.w3.org/2000/svg">
<path d="M10 5.0025C9.99934 6.32858 9.47192 7.60009 8.53377 8.5373C7.59562 9.47452 6.32358 10.0007 4.9975 10C3.67142 9.99934 2.39991 9.47192 1.4627 8.53377C0.525486 7.59562 -0.000662415 6.32358 6.25904e-07 4.9975C0.000663667 3.67142 0.528084 2.39991 1.46623 1.4627C2.40439 0.525486 3.67642 -0.000662415 5.0025 6.25904e-07C6.32858 0.000663667 7.60009 0.528084 8.5373 1.46623C9.47452 2.40439 10.0007 3.67642 10 5.0025ZM10.15 13.7025H0.15V45.0025H10.15V13.7025ZM25.95 13.7025H16V45.0025H25.85V28.5775C25.85 19.4275 37.775 18.5775 37.775 28.5775V45.0025H47.65V25.1775C47.65 9.7525 30 10.3275 25.85 17.9025L25.95 13.7025Z" fill="black"/>
</svg>
